<svg width="820" height="283" viewBox="0 0 820 283" fill="none" xmlns="http://www.w3.org/2000/svg">
<g filter="url(#filter0_d_72_285)">
<path d="M198.211 83.2622C195.951 92.2007 193.141 99.8972 185.241 105.659C172.322 115.076 160.258 125.654 147.838 135.753C135.916 145.445 123.985 155.126 112.114 164.89C110.007 166.62 107.849 167.343 105.12 167.302C95.3977 167.17 85.6855 167.252 75.0469 167.252C78.1112 164.594 80.5444 162.385 83.0895 160.298C104.967 142.38 126.856 124.463 148.774 106.586C157.458 99.5103 166.132 92.4246 175.009 85.5935C176.781 84.2293 179.397 83.4963 181.678 83.364C187.084 83.0484 192.53 83.2622 198.211 83.2622Z" fill="#1B5E20"/>
</g>
<g filter="url(#filter1_d_72_285)">
<path d="M105.82 198.985C107.816 193.09 110.025 187.338 111.684 181.444C113.232 175.936 116.428 171.955 120.826 168.443C137.003 155.544 153.007 142.442 169.092 129.431C175.72 124.076 182.388 118.793 189.647 113.814C188.517 117.225 187.417 120.635 186.257 124.036C183.986 130.653 181.777 137.301 179.303 143.847C178.621 145.639 177.379 147.451 175.903 148.662C157.7 163.628 139.406 178.481 121.142 193.365C120.643 193.772 120.144 194.18 119.717 194.648C115.97 198.71 111.511 200.573 105.83 198.975L105.82 198.985Z" fill="#2E7D32"/>
</g>
<g filter="url(#filter2_d_72_285)">
<path d="M127.363 198.709C142.42 186.554 157.467 174.398 172.524 162.232C172.758 162.375 172.992 162.517 173.227 162.66C172.005 166.294 170.783 169.929 169.551 173.553C167.281 180.272 164.99 186.991 162.72 193.721C161.427 197.538 159.564 199.228 155.502 199.29C146.228 199.432 136.953 199.33 127.679 199.33C127.577 199.116 127.465 198.903 127.363 198.699V198.709Z" fill="#FBC02D"/>
</g>
<path d="M226.221 145.514V103.626H242.83C245.662 103.626 247.979 104.199 249.782 105.343C251.605 106.467 252.953 107.912 253.826 109.677C254.718 111.442 255.164 113.264 255.164 115.145C255.164 117.453 254.611 119.412 253.506 121.021C252.42 122.631 250.936 123.717 249.055 124.279V122.825C251.692 123.426 253.69 124.677 255.047 126.577C256.424 128.478 257.113 130.64 257.113 133.064C257.113 135.546 256.638 137.718 255.687 139.58C254.737 141.441 253.321 142.896 251.44 143.943C249.579 144.99 247.271 145.514 244.517 145.514H226.221ZM233.318 138.911H243.645C244.866 138.911 245.962 138.668 246.932 138.183C247.901 137.679 248.658 136.981 249.201 136.089C249.763 135.178 250.044 134.101 250.044 132.86C250.044 131.735 249.802 130.727 249.317 129.835C248.832 128.943 248.124 128.235 247.193 127.712C246.263 127.169 245.148 126.897 243.848 126.897H233.318V138.911ZM233.318 120.352H242.743C243.751 120.352 244.653 120.158 245.448 119.77C246.243 119.383 246.874 118.811 247.339 118.054C247.804 117.298 248.037 116.367 248.037 115.262C248.037 113.807 247.572 112.595 246.641 111.626C245.71 110.656 244.411 110.171 242.743 110.171H233.318V120.352ZM263.504 145.514V102.754H270.514V145.514H263.504ZM291.008 146.415C288.681 146.415 286.761 146.028 285.249 145.252C283.736 144.476 282.534 143.487 281.642 142.285C280.75 141.083 280.09 139.803 279.664 138.445C279.237 137.088 278.956 135.808 278.82 134.606C278.704 133.384 278.646 132.395 278.646 131.639V114.098H285.743V129.224C285.743 130.194 285.811 131.289 285.947 132.511C286.083 133.714 286.393 134.877 286.878 136.002C287.382 137.107 288.119 138.019 289.088 138.736C290.077 139.454 291.406 139.812 293.074 139.812C293.966 139.812 294.848 139.667 295.721 139.376C296.593 139.085 297.379 138.591 298.077 137.893C298.794 137.175 299.366 136.196 299.793 134.955C300.22 133.714 300.433 132.143 300.433 130.242L304.592 132.017C304.592 134.693 304.069 137.117 303.022 139.289C301.994 141.461 300.472 143.196 298.455 144.496C296.438 145.775 293.956 146.415 291.008 146.415ZM301.276 145.514V135.769H300.433V114.098H307.472V145.514H301.276ZM329.927 146.386C326.747 146.386 323.954 145.698 321.55 144.321C319.145 142.944 317.264 141.034 315.906 138.591C314.568 136.147 313.899 133.335 313.899 130.155C313.899 126.723 314.559 123.746 315.877 121.225C317.196 118.685 319.029 116.716 321.375 115.32C323.722 113.924 326.436 113.226 329.52 113.226C332.778 113.226 335.541 113.992 337.81 115.524C340.098 117.036 341.795 119.179 342.9 121.952C344.006 124.725 344.423 127.993 344.151 131.755H337.199V129.195C337.18 125.782 336.579 123.29 335.396 121.719C334.213 120.149 332.351 119.363 329.811 119.363C326.941 119.363 324.808 120.255 323.411 122.039C322.015 123.804 321.317 126.393 321.317 129.806C321.317 132.986 322.015 135.449 323.411 137.194C324.808 138.94 326.844 139.812 329.52 139.812C331.246 139.812 332.729 139.434 333.97 138.678C335.231 137.902 336.2 136.787 336.879 135.333L343.802 137.427C342.6 140.258 340.738 142.459 338.217 144.03C335.716 145.601 332.952 146.386 329.927 146.386ZM319.106 131.755V126.461H340.719V131.755H319.106ZM364.284 146.386C361.046 146.386 358.282 145.669 355.994 144.234C353.706 142.779 351.951 140.801 350.729 138.3C349.527 135.798 348.916 132.967 348.896 129.806C348.916 126.587 349.546 123.736 350.787 121.254C352.048 118.752 353.832 116.794 356.139 115.378C358.447 113.943 361.191 113.226 364.371 113.226C367.939 113.226 370.955 114.127 373.418 115.931C375.9 117.715 377.519 120.158 378.276 123.261L371.294 125.152C370.751 123.465 369.85 122.156 368.589 121.225C367.329 120.275 365.894 119.8 364.284 119.8C362.461 119.8 360.958 120.236 359.775 121.109C358.592 121.962 357.72 123.145 357.157 124.657C356.595 126.17 356.314 127.886 356.314 129.806C356.314 132.792 356.983 135.207 358.321 137.049C359.659 138.891 361.647 139.812 364.284 139.812C366.146 139.812 367.61 139.386 368.676 138.532C369.762 137.679 370.577 136.448 371.12 134.838L378.276 136.438C377.306 139.638 375.609 142.101 373.185 143.827C370.761 145.533 367.794 146.386 364.284 146.386ZM405.834 145.514V130.388C405.834 129.399 405.766 128.303 405.63 127.101C405.494 125.898 405.174 124.745 404.67 123.639C404.185 122.514 403.448 121.593 402.459 120.876C401.49 120.158 400.171 119.8 398.503 119.8C397.611 119.8 396.729 119.945 395.856 120.236C394.984 120.527 394.188 121.031 393.471 121.749C392.773 122.447 392.21 123.416 391.784 124.657C391.357 125.879 391.144 127.45 391.144 129.37L386.984 127.595C386.984 124.919 387.498 122.495 388.526 120.323C389.573 118.151 391.105 116.425 393.122 115.145C395.139 113.846 397.621 113.197 400.569 113.197C402.896 113.197 404.815 113.584 406.328 114.36C407.841 115.136 409.043 116.125 409.935 117.327C410.827 118.529 411.486 119.809 411.913 121.167C412.34 122.524 412.611 123.814 412.727 125.035C412.863 126.238 412.931 127.217 412.931 127.973V145.514H405.834ZM384.046 145.514V103.626H390.3V125.675H391.144V145.514H384.046ZM421.104 109.328V102.899H428.114V109.328H421.104ZM421.104 145.514V114.098H428.114V145.514H421.104ZM451.924 146.386C448.86 146.386 446.291 145.659 444.216 144.205C442.141 142.75 440.58 140.772 439.532 138.271C438.485 135.75 437.962 132.928 437.962 129.806C437.962 126.645 438.485 123.814 439.532 121.312C440.58 118.811 442.112 116.842 444.128 115.407C446.164 113.953 448.676 113.226 451.662 113.226C454.629 113.226 457.199 113.953 459.371 115.407C461.562 116.842 463.259 118.811 464.461 121.312C465.663 123.794 466.265 126.626 466.265 129.806C466.265 132.948 465.673 135.769 464.49 138.271C463.307 140.772 461.639 142.75 459.487 144.205C457.334 145.659 454.813 146.386 451.924 146.386ZM436.769 159.476V114.098H442.965V136.147H443.837V159.476H436.769ZM450.848 140.103C452.671 140.103 454.173 139.648 455.356 138.736C456.539 137.825 457.412 136.593 457.974 135.042C458.556 133.471 458.847 131.726 458.847 129.806C458.847 127.906 458.556 126.18 457.974 124.628C457.393 123.057 456.491 121.816 455.269 120.905C454.047 119.974 452.496 119.509 450.615 119.509C448.831 119.509 447.376 119.945 446.252 120.818C445.127 121.671 444.293 122.873 443.75 124.425C443.227 125.957 442.965 127.75 442.965 129.806C442.965 131.842 443.227 133.636 443.75 135.187C444.293 136.739 445.137 137.951 446.281 138.823C447.444 139.677 448.967 140.103 450.848 140.103ZM484.323 145.514V103.626H509.542V110.637H491.333V121.079H506.052V128.061H491.333V145.514H484.323ZM515.357 109.328V102.899H522.367V109.328H515.357ZM515.357 145.514V114.098H522.367V145.514H515.357ZM552.809 145.514V130.388C552.809 129.399 552.741 128.303 552.605 127.101C552.47 125.898 552.15 124.745 551.646 123.639C551.161 122.514 550.424 121.593 549.435 120.876C548.465 120.158 547.147 119.8 545.479 119.8C544.587 119.8 543.704 119.945 542.832 120.236C541.959 120.527 541.164 121.031 540.447 121.749C539.748 122.447 539.186 123.416 538.759 124.657C538.333 125.879 538.119 127.45 538.119 129.37L533.96 127.595C533.96 124.919 534.474 122.495 535.502 120.323C536.549 118.151 538.081 116.425 540.098 115.145C542.114 113.846 544.596 113.197 547.544 113.197C549.871 113.197 551.791 113.584 553.304 114.36C554.816 115.136 556.019 116.125 556.911 117.327C557.803 118.529 558.462 119.809 558.889 121.167C559.315 122.524 559.587 123.814 559.703 125.035C559.839 126.238 559.907 127.217 559.907 127.973V145.514H552.809ZM531.022 145.514V114.098H537.276V123.843H538.119V145.514H531.022ZM605.225 145.514V126.432C605.225 124.279 604.692 122.602 603.625 121.399C602.558 120.178 601.114 119.567 599.291 119.567C598.166 119.567 597.158 119.829 596.266 120.352C595.374 120.856 594.666 121.613 594.142 122.621C593.619 123.61 593.357 124.793 593.357 126.17L590.244 124.337C590.225 122.165 590.71 120.255 591.699 118.607C592.707 116.939 594.065 115.64 595.771 114.709C597.478 113.778 599.378 113.313 601.473 113.313C604.944 113.313 607.6 114.36 609.443 116.454C611.304 118.529 612.235 121.264 612.235 124.657V145.514H605.225ZM567.439 145.514V114.098H573.635V123.843H574.508V145.514H567.439ZM586.376 145.514V126.519C586.376 124.328 585.842 122.621 584.776 121.399C583.709 120.178 582.255 119.567 580.413 119.567C578.628 119.567 577.193 120.178 576.107 121.399C575.041 122.621 574.508 124.211 574.508 126.17L571.366 124.076C571.366 122.039 571.87 120.207 572.879 118.578C573.887 116.949 575.245 115.669 576.951 114.738C578.677 113.788 580.606 113.313 582.74 113.313C585.086 113.313 587.045 113.817 588.615 114.825C590.206 115.814 591.389 117.172 592.164 118.898C592.959 120.604 593.357 122.534 593.357 124.686V145.514H586.376ZM628.607 146.386C626.338 146.386 624.418 145.96 622.847 145.106C621.277 144.234 620.084 143.08 619.27 141.645C618.474 140.21 618.077 138.629 618.077 136.904C618.077 135.391 618.329 134.033 618.833 132.831C619.337 131.609 620.113 130.562 621.16 129.69C622.207 128.798 623.565 128.07 625.233 127.508C626.493 127.101 627.967 126.732 629.654 126.403C631.361 126.073 633.203 125.772 635.181 125.501C637.178 125.21 639.263 124.9 641.435 124.57L638.933 125.995C638.953 123.823 638.468 122.224 637.479 121.196C636.49 120.168 634.822 119.654 632.476 119.654C631.06 119.654 629.693 119.984 628.374 120.643C627.056 121.302 626.134 122.437 625.611 124.046L619.211 122.039C619.987 119.383 621.461 117.25 623.633 115.64C625.824 114.03 628.772 113.226 632.476 113.226C635.268 113.226 637.721 113.681 639.835 114.593C641.968 115.504 643.549 116.997 644.576 119.072C645.139 120.178 645.478 121.312 645.595 122.476C645.711 123.62 645.769 124.871 645.769 126.228V145.514H639.631V138.707L640.649 139.812C639.234 142.081 637.576 143.749 635.675 144.816C633.794 145.863 631.438 146.386 628.607 146.386ZM630.003 140.801C631.593 140.801 632.951 140.52 634.076 139.958C635.2 139.395 636.092 138.707 636.752 137.893C637.43 137.078 637.886 136.312 638.119 135.595C638.487 134.703 638.691 133.684 638.73 132.54C638.788 131.377 638.817 130.436 638.817 129.719L640.969 130.359C638.856 130.688 637.043 130.979 635.53 131.231C634.017 131.483 632.718 131.726 631.632 131.959C630.546 132.172 629.586 132.414 628.752 132.686C627.938 132.977 627.249 133.316 626.687 133.704C626.125 134.092 625.688 134.538 625.378 135.042C625.087 135.546 624.942 136.138 624.942 136.816C624.942 137.592 625.136 138.28 625.524 138.882C625.911 139.463 626.474 139.929 627.211 140.278C627.967 140.627 628.898 140.801 630.003 140.801ZM649.851 145.514L661.341 129.631L650.084 114.098H658.345L665.414 124.134L672.366 114.098H680.627L669.37 129.631L680.918 145.514H672.657L665.414 135.129L658.113 145.514H649.851Z" fill="white"/>
<path d="M231.154 191.915C229.744 191.915 228.473 191.67 227.34 191.179C226.216 190.689 225.288 189.988 224.557 189.078C223.834 188.16 223.375 187.071 223.179 185.814L226.524 185.305C226.809 186.447 227.394 187.33 228.277 187.954C229.169 188.579 230.195 188.891 231.354 188.891C232.041 188.891 232.688 188.784 233.295 188.57C233.901 188.356 234.392 188.044 234.766 187.633C235.15 187.223 235.342 186.719 235.342 186.121C235.342 185.854 235.297 185.608 235.208 185.385C235.119 185.153 234.985 184.948 234.807 184.77C234.637 184.591 234.414 184.431 234.137 184.288C233.87 184.136 233.558 184.007 233.201 183.9L228.223 182.428C227.795 182.303 227.331 182.138 226.832 181.933C226.341 181.719 225.873 181.429 225.427 181.063C224.99 180.689 224.628 180.216 224.343 179.645C224.066 179.065 223.928 178.352 223.928 177.504C223.928 176.264 224.24 175.225 224.865 174.386C225.498 173.539 226.345 172.906 227.407 172.486C228.477 172.067 229.664 171.862 230.966 171.871C232.286 171.88 233.464 172.107 234.499 172.553C235.534 172.99 236.399 173.628 237.095 174.467C237.79 175.305 238.281 176.318 238.566 177.504L235.101 178.106C234.958 177.428 234.682 176.853 234.271 176.38C233.87 175.898 233.375 175.533 232.786 175.283C232.206 175.033 231.586 174.899 230.926 174.882C230.284 174.873 229.686 174.971 229.133 175.176C228.589 175.372 228.147 175.658 227.808 176.032C227.478 176.407 227.313 176.844 227.313 177.344C227.313 177.816 227.456 178.204 227.742 178.508C228.027 178.802 228.379 179.038 228.799 179.217C229.227 179.386 229.659 179.529 230.097 179.645L233.549 180.608C234.022 180.733 234.552 180.903 235.141 181.117C235.73 181.331 236.296 181.63 236.84 182.013C237.385 182.397 237.831 182.901 238.178 183.525C238.535 184.15 238.714 184.944 238.714 185.907C238.714 186.906 238.504 187.785 238.085 188.543C237.674 189.292 237.117 189.917 236.412 190.416C235.707 190.916 234.9 191.291 233.99 191.54C233.089 191.79 232.144 191.915 231.154 191.915ZM267.261 191.514V182.736C267.261 181.746 267.015 180.974 266.525 180.421C266.034 179.859 265.369 179.578 264.531 179.578C264.014 179.578 263.55 179.699 263.139 179.939C262.729 180.171 262.403 180.519 262.163 180.983C261.922 181.438 261.801 181.982 261.801 182.616L260.37 181.773C260.361 180.773 260.584 179.895 261.039 179.137C261.502 178.369 262.127 177.772 262.912 177.344C263.697 176.915 264.571 176.701 265.535 176.701C267.131 176.701 268.353 177.183 269.201 178.146C270.057 179.101 270.485 180.359 270.485 181.92V191.514H267.261ZM249.879 191.514V177.063H252.729V181.545H253.131V191.514H249.879ZM258.59 191.514V182.776C258.59 181.768 258.345 180.983 257.854 180.421C257.363 179.859 256.694 179.578 255.847 179.578C255.026 179.578 254.366 179.859 253.867 180.421C253.376 180.983 253.131 181.715 253.131 182.616L251.686 181.652C251.686 180.716 251.917 179.873 252.381 179.123C252.845 178.374 253.47 177.785 254.255 177.357C255.049 176.92 255.936 176.701 256.917 176.701C257.997 176.701 258.898 176.933 259.62 177.397C260.352 177.852 260.896 178.476 261.253 179.27C261.618 180.055 261.801 180.943 261.801 181.933V191.514H258.59ZM286.312 191.915C285.269 191.915 284.386 191.719 283.663 191.326C282.94 190.925 282.392 190.394 282.017 189.734C281.651 189.074 281.469 188.347 281.469 187.553C281.469 186.857 281.585 186.233 281.816 185.68C282.048 185.118 282.405 184.636 282.887 184.235C283.369 183.824 283.993 183.49 284.76 183.231C285.34 183.044 286.018 182.874 286.794 182.723C287.579 182.571 288.426 182.433 289.336 182.308C290.255 182.174 291.214 182.031 292.213 181.88L291.062 182.535C291.071 181.536 290.848 180.8 290.393 180.327C289.938 179.855 289.171 179.618 288.092 179.618C287.441 179.618 286.812 179.77 286.205 180.073C285.599 180.377 285.175 180.898 284.934 181.639L281.99 180.716C282.347 179.493 283.025 178.512 284.024 177.772C285.032 177.031 286.388 176.661 288.092 176.661C289.376 176.661 290.505 176.871 291.477 177.29C292.459 177.709 293.186 178.396 293.658 179.351C293.917 179.859 294.073 180.381 294.127 180.916C294.18 181.443 294.207 182.018 294.207 182.642V191.514H291.384V188.383L291.852 188.891C291.201 189.935 290.438 190.702 289.564 191.193C288.699 191.674 287.615 191.915 286.312 191.915ZM286.955 189.346C287.686 189.346 288.311 189.217 288.828 188.958C289.345 188.699 289.756 188.383 290.059 188.008C290.371 187.633 290.581 187.281 290.688 186.951C290.857 186.541 290.951 186.072 290.969 185.546C290.996 185.011 291.009 184.578 291.009 184.248L291.999 184.542C291.027 184.694 290.193 184.828 289.497 184.944C288.801 185.06 288.203 185.171 287.704 185.278C287.204 185.376 286.763 185.488 286.379 185.613C286.005 185.747 285.688 185.903 285.429 186.081C285.171 186.26 284.97 186.465 284.827 186.697C284.693 186.929 284.626 187.201 284.626 187.513C284.626 187.87 284.716 188.186 284.894 188.463C285.072 188.731 285.331 188.945 285.67 189.105C286.018 189.266 286.446 189.346 286.955 189.346ZM305.986 191.514V177.063H308.837V180.582L308.489 180.127C308.667 179.645 308.903 179.208 309.198 178.815C309.501 178.414 309.862 178.084 310.282 177.825C310.638 177.584 311.031 177.397 311.459 177.263C311.896 177.121 312.342 177.036 312.797 177.009C313.252 176.973 313.694 176.991 314.122 177.063V180.073C313.694 179.948 313.199 179.908 312.637 179.953C312.084 179.997 311.584 180.154 311.138 180.421C310.692 180.662 310.326 180.97 310.041 181.344C309.764 181.719 309.559 182.147 309.425 182.629C309.291 183.102 309.225 183.615 309.225 184.168V191.514H305.986ZM333.441 191.514C332.487 191.692 331.55 191.768 330.631 191.741C329.721 191.723 328.905 191.558 328.183 191.246C327.46 190.925 326.911 190.421 326.537 189.734C326.207 189.11 326.033 188.472 326.015 187.821C325.997 187.169 325.988 186.433 325.988 185.613V173.048H329.2V185.425C329.2 186.005 329.204 186.514 329.213 186.951C329.231 187.388 329.324 187.745 329.494 188.021C329.815 188.557 330.328 188.855 331.033 188.918C331.737 188.98 332.54 188.945 333.441 188.811V191.514ZM323.366 179.592V177.063H333.441V179.592H323.366ZM358.498 191.514V172.246H361.402L368.065 185.894L374.729 172.246H377.632V191.514H374.622V179.163L368.708 191.514H367.423L361.522 179.163V191.514H358.498ZM396.07 191.915C394.625 191.915 393.363 191.589 392.283 190.938C391.204 190.287 390.365 189.391 389.768 188.249C389.179 187.098 388.885 185.778 388.885 184.288C388.885 182.772 389.188 181.443 389.795 180.301C390.401 179.159 391.244 178.267 392.324 177.625C393.403 176.982 394.652 176.661 396.07 176.661C397.524 176.661 398.791 176.987 399.87 177.638C400.95 178.289 401.788 179.19 402.386 180.341C402.983 181.483 403.282 182.798 403.282 184.288C403.282 185.787 402.979 187.111 402.372 188.262C401.775 189.404 400.936 190.3 399.857 190.952C398.777 191.594 397.515 191.915 396.07 191.915ZM396.07 188.891C397.355 188.891 398.309 188.463 398.934 187.607C399.558 186.75 399.87 185.644 399.87 184.288C399.87 182.888 399.554 181.773 398.92 180.943C398.287 180.104 397.337 179.685 396.07 179.685C395.205 179.685 394.491 179.881 393.929 180.274C393.376 180.658 392.966 181.197 392.698 181.893C392.431 182.58 392.297 183.378 392.297 184.288C392.297 185.689 392.613 186.808 393.247 187.647C393.889 188.476 394.83 188.891 396.07 188.891ZM424.522 191.514V184.556C424.522 184.101 424.491 183.597 424.428 183.044C424.366 182.491 424.218 181.96 423.987 181.451C423.763 180.934 423.425 180.51 422.97 180.18C422.524 179.85 421.917 179.685 421.15 179.685C420.739 179.685 420.334 179.752 419.932 179.886C419.531 180.02 419.165 180.252 418.835 180.582C418.514 180.903 418.255 181.349 418.059 181.92C417.863 182.482 417.765 183.204 417.765 184.087L415.851 183.271C415.851 182.04 416.087 180.925 416.56 179.926C417.042 178.927 417.747 178.133 418.674 177.544C419.602 176.947 420.744 176.648 422.1 176.648C423.17 176.648 424.053 176.826 424.749 177.183C425.445 177.54 425.998 177.995 426.408 178.548C426.819 179.101 427.122 179.69 427.318 180.314C427.515 180.939 427.639 181.532 427.693 182.094C427.755 182.647 427.787 183.097 427.787 183.445V191.514H424.522ZM414.5 191.514V177.063H417.376V181.545H417.765V191.514H414.5ZM445.909 191.915C444.446 191.915 443.161 191.598 442.055 190.965C440.949 190.332 440.084 189.453 439.46 188.329C438.844 187.205 438.536 185.912 438.536 184.449C438.536 182.87 438.84 181.5 439.446 180.341C440.053 179.172 440.896 178.267 441.975 177.625C443.054 176.982 444.303 176.661 445.722 176.661C447.22 176.661 448.491 177.014 449.535 177.718C450.588 178.414 451.368 179.4 451.877 180.675C452.385 181.951 452.577 183.454 452.452 185.185H449.254V184.007C449.245 182.437 448.969 181.291 448.425 180.568C447.88 179.846 447.024 179.484 445.855 179.484C444.535 179.484 443.554 179.895 442.912 180.716C442.269 181.527 441.948 182.718 441.948 184.288C441.948 185.751 442.269 186.884 442.912 187.687C443.554 188.49 444.491 188.891 445.722 188.891C446.516 188.891 447.198 188.717 447.769 188.369C448.349 188.012 448.795 187.499 449.107 186.83L452.292 187.794C451.738 189.096 450.882 190.109 449.722 190.831C448.572 191.554 447.301 191.915 445.909 191.915ZM440.931 185.185V182.749H450.873V185.185H440.931ZM465.372 197.936L468.156 190.296L468.209 192.544L461.907 177.063H465.265L469.734 188.516H468.878L473.227 177.063H476.452L468.396 197.936H465.372ZM485.135 191.514V188.209H488.44V191.514H485.135ZM514.677 191.514V172.246H522.639C522.826 172.246 523.067 172.254 523.361 172.272C523.656 172.281 523.928 172.308 524.178 172.353C525.293 172.522 526.211 172.892 526.934 173.463C527.665 174.034 528.205 174.757 528.553 175.631C528.91 176.496 529.088 177.46 529.088 178.521C529.088 180.091 528.691 181.443 527.897 182.575C527.103 183.699 525.886 184.395 524.244 184.663L522.866 184.783H517.902V191.514H514.677ZM525.743 191.514L521.943 183.673L525.221 182.95L529.396 191.514H525.743ZM517.902 181.773H522.505C522.683 181.773 522.884 181.764 523.107 181.746C523.33 181.728 523.535 181.692 523.723 181.639C524.258 181.505 524.677 181.269 524.98 180.93C525.293 180.591 525.511 180.207 525.636 179.779C525.77 179.351 525.837 178.931 525.837 178.521C525.837 178.111 525.77 177.691 525.636 177.263C525.511 176.826 525.293 176.438 524.98 176.099C524.677 175.76 524.258 175.524 523.723 175.39C523.535 175.336 523.33 175.305 523.107 175.296C522.884 175.279 522.683 175.27 522.505 175.27H517.902V181.773ZM547.21 191.915C545.747 191.915 544.462 191.598 543.356 190.965C542.25 190.332 541.385 189.453 540.76 188.329C540.145 187.205 539.837 185.912 539.837 184.449C539.837 182.87 540.14 181.5 540.747 180.341C541.354 179.172 542.197 178.267 543.276 177.625C544.355 176.982 545.604 176.661 547.022 176.661C548.521 176.661 549.792 177.014 550.836 177.718C551.889 178.414 552.669 179.4 553.178 180.675C553.686 181.951 553.878 183.454 553.753 185.185H550.555V184.007C550.546 182.437 550.269 181.291 549.725 180.568C549.181 179.846 548.325 179.484 547.156 179.484C545.836 179.484 544.855 179.895 544.213 180.716C543.57 181.527 543.249 182.718 543.249 184.288C543.249 185.751 543.57 186.884 544.213 187.687C544.855 188.49 545.791 188.891 547.022 188.891C547.816 188.891 548.499 188.717 549.07 188.369C549.65 188.012 550.096 187.499 550.408 186.83L553.592 187.794C553.039 189.096 552.183 190.109 551.023 190.831C549.873 191.554 548.601 191.915 547.21 191.915ZM542.232 185.185V182.749H552.174V185.185H542.232ZM568.814 191.915C567.77 191.915 566.887 191.719 566.165 191.326C565.442 190.925 564.894 190.394 564.519 189.734C564.153 189.074 563.97 188.347 563.97 187.553C563.97 186.857 564.086 186.233 564.318 185.68C564.55 185.118 564.907 184.636 565.389 184.235C565.87 183.824 566.495 183.49 567.262 183.231C567.842 183.044 568.52 182.874 569.296 182.723C570.081 182.571 570.928 182.433 571.838 182.308C572.757 182.174 573.716 182.031 574.715 181.88L573.564 182.535C573.573 181.536 573.35 180.8 572.895 180.327C572.44 179.855 571.673 179.618 570.594 179.618C569.943 179.618 569.314 179.77 568.707 180.073C568.1 180.377 567.677 180.898 567.436 181.639L564.492 180.716C564.849 179.493 565.527 178.512 566.526 177.772C567.534 177.031 568.89 176.661 570.594 176.661C571.878 176.661 573.007 176.871 573.979 177.29C574.96 177.709 575.687 178.396 576.16 179.351C576.419 179.859 576.575 180.381 576.628 180.916C576.682 181.443 576.709 182.018 576.709 182.642V191.514H573.885V188.383L574.354 188.891C573.702 189.935 572.94 190.702 572.066 191.193C571.2 191.674 570.116 191.915 568.814 191.915ZM569.456 189.346C570.188 189.346 570.812 189.217 571.33 188.958C571.847 188.699 572.257 188.383 572.561 188.008C572.873 187.633 573.083 187.281 573.19 186.951C573.359 186.541 573.453 186.072 573.471 185.546C573.497 185.011 573.511 184.578 573.511 184.248L574.501 184.542C573.529 184.694 572.694 184.828 571.999 184.944C571.303 185.06 570.705 185.171 570.206 185.278C569.706 185.376 569.265 185.488 568.881 185.613C568.506 185.747 568.19 185.903 567.931 186.081C567.672 186.26 567.472 186.465 567.329 186.697C567.195 186.929 567.128 187.201 567.128 187.513C567.128 187.87 567.217 188.186 567.396 188.463C567.574 188.731 567.833 188.945 568.172 189.105C568.52 189.266 568.948 189.346 569.456 189.346ZM588.756 191.514V171.844H591.981V191.514H588.756ZM625.07 191.915C623.661 191.915 622.389 191.67 621.257 191.179C620.133 190.689 619.205 189.988 618.473 189.078C617.751 188.16 617.291 187.071 617.095 185.814L620.44 185.305C620.726 186.447 621.31 187.33 622.193 187.954C623.085 188.579 624.111 188.891 625.271 188.891C625.958 188.891 626.604 188.784 627.211 188.57C627.818 188.356 628.308 188.044 628.683 187.633C629.066 187.223 629.258 186.719 629.258 186.121C629.258 185.854 629.214 185.608 629.124 185.385C629.035 185.153 628.901 184.948 628.723 184.77C628.553 184.591 628.33 184.431 628.054 184.288C627.786 184.136 627.474 184.007 627.117 183.9L622.14 182.428C621.711 182.303 621.248 182.138 620.748 181.933C620.257 181.719 619.789 181.429 619.343 181.063C618.906 180.689 618.545 180.216 618.259 179.645C617.983 179.065 617.844 178.352 617.844 177.504C617.844 176.264 618.157 175.225 618.781 174.386C619.414 173.539 620.262 172.906 621.323 172.486C622.394 172.067 623.58 171.862 624.883 171.871C626.203 171.88 627.38 172.107 628.415 172.553C629.45 172.99 630.315 173.628 631.011 174.467C631.707 175.305 632.197 176.318 632.483 177.504L629.017 178.106C628.875 177.428 628.598 176.853 628.188 176.38C627.786 175.898 627.291 175.533 626.702 175.283C626.123 175.033 625.503 174.899 624.843 174.882C624.2 174.873 623.603 174.971 623.05 175.176C622.505 175.372 622.064 175.658 621.725 176.032C621.395 176.407 621.23 176.844 621.23 177.344C621.23 177.816 621.373 178.204 621.658 178.508C621.943 178.802 622.296 179.038 622.715 179.217C623.143 179.386 623.576 179.529 624.013 179.645L627.465 180.608C627.938 180.733 628.469 180.903 629.057 181.117C629.646 181.331 630.213 181.63 630.757 182.013C631.301 182.397 631.747 182.901 632.095 183.525C632.452 184.15 632.63 184.944 632.63 185.907C632.63 186.906 632.42 187.785 632.001 188.543C631.591 189.292 631.033 189.917 630.329 190.416C629.624 190.916 628.817 191.291 627.907 191.54C627.006 191.79 626.06 191.915 625.07 191.915ZM650.767 191.915C649.357 191.915 648.175 191.581 647.221 190.912C646.267 190.243 645.548 189.333 645.067 188.182C644.585 187.022 644.344 185.724 644.344 184.288C644.344 182.834 644.585 181.532 645.067 180.381C645.548 179.23 646.253 178.325 647.181 177.665C648.118 176.996 649.273 176.661 650.646 176.661C652.011 176.661 653.193 176.996 654.192 177.665C655.2 178.325 655.981 179.23 656.534 180.381C657.087 181.523 657.364 182.825 657.364 184.288C657.364 185.733 657.091 187.031 656.547 188.182C656.003 189.333 655.236 190.243 654.246 190.912C653.256 191.581 652.096 191.915 650.767 191.915ZM643.796 197.936V177.063H646.646V187.205H647.047V197.936H643.796ZM650.272 189.025C651.11 189.025 651.802 188.815 652.346 188.396C652.89 187.977 653.291 187.41 653.55 186.697C653.818 185.974 653.951 185.171 653.951 184.288C653.951 183.414 653.818 182.62 653.55 181.906C653.282 181.184 652.868 180.613 652.306 180.194C651.744 179.765 651.03 179.551 650.165 179.551C649.344 179.551 648.675 179.752 648.158 180.154C647.64 180.546 647.257 181.099 647.007 181.813C646.766 182.517 646.646 183.343 646.646 184.288C646.646 185.225 646.766 186.05 647.007 186.764C647.257 187.477 647.645 188.035 648.171 188.436C648.706 188.829 649.407 189.025 650.272 189.025ZM675.179 191.915C673.716 191.915 672.431 191.598 671.325 190.965C670.219 190.332 669.354 189.453 668.729 188.329C668.114 187.205 667.806 185.912 667.806 184.449C667.806 182.87 668.109 181.5 668.716 180.341C669.323 179.172 670.166 178.267 671.245 177.625C672.324 176.982 673.573 176.661 674.991 176.661C676.49 176.661 677.761 177.014 678.805 177.718C679.858 178.414 680.638 179.4 681.147 180.675C681.655 181.951 681.847 183.454 681.722 185.185H678.524V184.007C678.515 182.437 678.239 181.291 677.694 180.568C677.15 179.846 676.294 179.484 675.125 179.484C673.805 179.484 672.824 179.895 672.182 180.716C671.539 181.527 671.218 182.718 671.218 184.288C671.218 185.751 671.539 186.884 672.182 187.687C672.824 188.49 673.76 188.891 674.991 188.891C675.785 188.891 676.468 188.717 677.039 188.369C677.619 188.012 678.065 187.499 678.377 186.83L681.561 187.794C681.008 189.096 680.152 190.109 678.992 190.831C677.842 191.554 676.57 191.915 675.179 191.915ZM670.201 185.185V182.749H680.143V185.185H670.201ZM699.573 191.915C698.11 191.915 696.826 191.598 695.72 190.965C694.614 190.332 693.748 189.453 693.124 188.329C692.508 187.205 692.201 185.912 692.201 184.449C692.201 182.87 692.504 181.5 693.111 180.341C693.717 179.172 694.56 178.267 695.639 177.625C696.719 176.982 697.968 176.661 699.386 176.661C700.885 176.661 702.156 177.014 703.2 177.718C704.252 178.414 705.033 179.4 705.541 180.675C706.05 181.951 706.241 183.454 706.116 185.185H702.919V184.007C702.91 182.437 702.633 181.291 702.089 180.568C701.545 179.846 700.688 179.484 699.52 179.484C698.2 179.484 697.218 179.895 696.576 180.716C695.934 181.527 695.613 182.718 695.613 184.288C695.613 185.751 695.934 186.884 696.576 187.687C697.218 188.49 698.155 188.891 699.386 188.891C700.18 188.891 700.862 188.717 701.433 188.369C702.013 188.012 702.459 187.499 702.771 186.83L705.956 187.794C705.403 189.096 704.547 190.109 703.387 190.831C702.236 191.554 700.965 191.915 699.573 191.915ZM694.596 185.185V182.749H704.538V185.185H694.596ZM723.192 191.915C721.863 191.915 720.703 191.581 719.713 190.912C718.723 190.243 717.956 189.333 717.411 188.182C716.867 187.031 716.595 185.733 716.595 184.288C716.595 182.825 716.867 181.523 717.411 180.381C717.964 179.23 718.745 178.325 719.753 177.665C720.761 176.996 721.947 176.661 723.312 176.661C724.686 176.661 725.837 176.996 726.764 177.665C727.701 178.325 728.41 179.23 728.892 180.381C729.374 181.532 729.615 182.834 729.615 184.288C729.615 185.724 729.374 187.022 728.892 188.182C728.41 189.333 727.692 190.243 726.738 190.912C725.783 191.581 724.601 191.915 723.192 191.915ZM723.687 189.025C724.552 189.025 725.248 188.829 725.774 188.436C726.31 188.035 726.698 187.477 726.938 186.764C727.188 186.05 727.313 185.225 727.313 184.288C727.313 183.343 727.188 182.517 726.938 181.813C726.698 181.099 726.318 180.546 725.801 180.154C725.284 179.752 724.615 179.551 723.794 179.551C722.929 179.551 722.215 179.765 721.653 180.194C721.091 180.613 720.676 181.184 720.409 181.906C720.141 182.62 720.007 183.414 720.007 184.288C720.007 185.171 720.137 185.974 720.395 186.697C720.663 187.41 721.069 187.977 721.613 188.396C722.157 188.815 722.848 189.025 723.687 189.025ZM727.313 191.514V181.371H726.912V172.246H730.163V191.514H727.313ZM742.746 191.514V188.209H746.051V191.514H742.746Z" fill="white"/>
<defs>
<filter id="filter0_d_72_285" x="73.6104" y="83.1914" width="126.037" height="90.5774" filterUnits="userSpaceOnUse" color-interpolation-filters="sRGB">
<feFlood flood-opacity="0" result="BackgroundImageFix"/>
<feColorMatrix in="SourceAlpha" type="matrix" values="0 0 0 0 0 0 0 0 0 0 0 0 0 0 0 0 0 0 127 0" result="hardAlpha"/>
<feOffset dy="5.02761"/>
<feGaussianBlur stdDeviation="0.71823"/>
<feComposite in2="hardAlpha" operator="out"/>
<feColorMatrix type="matrix" values="0 0 0 0 0 0 0 0 0 0 0 0 0 0 0 0 0 0 0.07 0"/>
<feBlend mode="normal" in2="BackgroundImageFix" result="effect1_dropShadow_72_285"/>
<feBlend mode="normal" in="SourceGraphic" in2="effect1_dropShadow_72_285" result="shape"/>
</filter>
<filter id="filter1_d_72_285" x="104.384" y="113.814" width="86.701" height="92.1945" filterUnits="userSpaceOnUse" color-interpolation-filters="sRGB">
<feFlood flood-opacity="0" result="BackgroundImageFix"/>
<feColorMatrix in="SourceAlpha" type="matrix" values="0 0 0 0 0 0 0 0 0 0 0 0 0 0 0 0 0 0 127 0" result="hardAlpha"/>
<feOffset dy="5.02761"/>
<feGaussianBlur stdDeviation="0.71823"/>
<feComposite in2="hardAlpha" operator="out"/>
<feColorMatrix type="matrix" values="0 0 0 0 0 0 0 0 0 0 0 0 0 0 0 0 0 0 0.07 0"/>
<feBlend mode="normal" in2="BackgroundImageFix" result="effect1_dropShadow_72_285"/>
<feBlend mode="normal" in="SourceGraphic" in2="effect1_dropShadow_72_285" result="shape"/>
</filter>
<filter id="filter2_d_72_285" x="125.927" y="162.232" width="48.7362" height="43.5969" filterUnits="userSpaceOnUse" color-interpolation-filters="sRGB">
<feFlood flood-opacity="0" result="BackgroundImageFix"/>
<feColorMatrix in="SourceAlpha" type="matrix" values="0 0 0 0 0 0 0 0 0 0 0 0 0 0 0 0 0 0 127 0" result="hardAlpha"/>
<feOffset dy="5.02761"/>
<feGaussianBlur stdDeviation="0.71823"/>
<feComposite in2="hardAlpha" operator="out"/>
<feColorMatrix type="matrix" values="0 0 0 0 0 0 0 0 0 0 0 0 0 0 0 0 0 0 0.1 0"/>
<feBlend mode="normal" in2="BackgroundImageFix" result="effect1_dropShadow_72_285"/>
<feBlend mode="normal" in="SourceGraphic" in2="effect1_dropShadow_72_285" result="shape"/>
</filter>
</defs>
</svg>
